PathFileType	4	(X/Y/Z)	D:\TRACE\spotREDO_2-26-24\spot_Both_Motion_3_4-v60.trc
DataRate	CameraRate	NumFrames	NumMarkers	Units	OrigDataRate	OrigDataStartFrame	OrigNumFrames
100.00	100.00	      31	9	mm	100.00	3501	      7000
Frame#	Time	front left toe			Front right toe			aft left toe			aft right toe			Arm			FL body			FR body			AL Body			AR Body			
		X1	Y1	Z1	X2	Y2	Z2	X3	Y3	Z3	X4	Y4	Z4	X5	Y5	Z5	X6	Y6	Z6	X7	Y7	Z7	X8	Y8	Z8	X9	Y9	Z9	

3501	35.000	-145.74562	129.01416	-306.19113	285.65506	29.53827	-475.20831	-70.40075	16.56996	159.57037	311.19336	22.05294	54.63730	102.37958	755.92676	-723.08002	6.41096	599.64807	-495.84500	161.69807	605.81274	-507.15543	66.17472	547.14435	384.60852	213.06882	542.55396	376.53647	
3502	35.010	-146.37215	117.42586	-302.47418	285.32779	30.55787	-474.71051	-70.49249	16.63654	159.87251	310.99933	22.16744	54.59728	101.77219	754.54407	-719.30957	4.02320	599.92249	-494.27826	159.22951	606.12115	-505.94067	63.97427	546.98303	386.04086	211.52080	542.50824	377.41479	
3503	35.020	-145.59627	102.38306	-304.42972	285.29123	30.66542	-474.81473	-70.64278	16.56117	160.01230	310.72015	22.49294	54.59746	100.53593	752.91962	-716.09442	1.82706	600.26819	-493.21194	157.14769	606.51898	-504.74155	62.15893	547.14478	387.19113	209.64476	542.45917	378.79889	
3504	35.030	-142.35326	86.33138	-313.16800	284.91360	30.84328	-474.83392	-70.78664	16.29755	160.23190	310.44742	22.64653	54.54902	99.55577	751.68219	-713.82642	-0.26777	600.62000	-491.58020	155.14709	606.91357	-503.13718	59.89887	547.16486	388.63187	207.44827	542.29193	380.15625	
3505	35.040	-137.69318	70.50260	-328.76718	284.71024	30.78633	-474.75827	-70.89180	15.91141	160.43214	311.20737	23.39705	55.03646	98.38843	750.59631	-712.19305	-2.43244	601.09796	-490.44366	153.10573	607.11414	-501.82272	57.78875	547.11938	390.10947	205.03210	542.30304	381.64825	
3506	35.050	-131.97121	55.58753	-348.33386	284.73181	30.63833	-474.57632	-71.02785	15.59291	160.51974	310.96191	23.41544	54.94601	97.85950	749.48511	-711.05396	-4.44619	600.75116	-488.91125	151.27609	607.19366	-500.39578	54.92848	546.92932	391.41684	202.47856	542.23334	383.01199	
3507	35.060	-126.44775	42.98085	-368.36633	284.74503	30.52534	-474.47653	-71.16422	15.31254	160.48630	310.69019	23.44170	54.95358	97.03014	749.19476	-710.70654	-6.63846	600.55316	-487.87885	148.96794	607.18610	-499.16266	52.58799	546.77057	392.41907	199.52051	542.43268	384.10809	
3508	35.070	-122.27258	30.57896	-385.29327	284.72052	30.40377	-474.44604	-71.39001	14.93648	160.53925	310.12537	23.44019	54.80416	96.39865	748.87408	-710.74084	-8.53798	599.84167	-486.77661	146.89795	606.94122	-497.93661	49.60437	546.29193	393.44379	196.36386	542.48102	385.47501	
3509	35.080	-123.90187	29.22541	-383.00778	284.49310	30.05162	-474.64075	-71.58491	14.58035	160.33583	309.87338	23.46142	54.89383	95.92947	748.94611	-711.27600	-10.57330	599.60986	-486.06900	144.63831	606.92627	-496.85513	46.20692	546.17865	394.61890	193.38237	542.52905	386.75000	
3510	35.090	-127.26027	29.94028	-383.03680	284.51837	30.83763	-474.97375	-72.17530	13.50354	160.81396	309.72992	23.22018	54.38068	95.87063	749.17883	-711.61023	-12.82805	600.67603	-484.76389	142.41617	607.80896	-495.44562	43.90007	546.46936	395.71127	191.51974	542.20197	388.81482	
3511	35.100	-126.22272	30.29736	-383.13690	283.36047	31.52992	-474.95276	-73.03048	12.95976	160.96365	308.75647	24.37262	54.76093	95.52236	750.14160	-711.97821	-15.48938	601.84875	-483.62326	139.61768	608.53973	-494.64877	41.20062	546.49200	396.67450	188.88017	542.06744	388.84720	
3512	35.110	-126.21072	30.58849	-382.32422	283.28949	32.03298	-474.80811	-73.62586	12.51431	160.94081	307.59625	25.04105	54.50295	95.45181	751.22833	-711.99841	-17.60631	602.77191	-482.75708	137.38380	608.77405	-493.95160	39.11827	547.70856	397.54514	186.45351	542.46667	389.68564	
3513	35.120	-126.85865	30.61687	-382.12906	283.22095	31.75957	-474.86505	-73.26814	12.99689	160.75793	307.21152	25.37100	55.21253	95.45229	751.78339	-712.92804	-20.69170	604.02020	-482.91064	135.56978	609.03186	-493.15967	36.34170	548.70142	398.39728	184.03969	543.17712	390.52017	
3514	35.130	-126.37226	30.33149	-382.40649	283.08789	32.04609	-474.80505	-73.43494	12.99484	160.68314	307.22156	25.41768	55.20016	96.64182	751.88025	-714.01624	-21.96797	604.23950	-481.37537	133.76822	609.29956	-492.59171	34.24694	549.86047	398.94498	181.66330	544.13232	391.22577	
3515	35.140	-126.56554	30.14287	-382.42944	282.94601	31.92990	-474.77512	-73.78777	12.71143	160.53130	306.98880	25.36843	54.92946	97.27531	752.24371	-715.22705	-23.63808	604.64087	-480.84915	131.68643	609.34644	-492.23221	32.36267	551.00183	399.57886	179.57147	544.79675	391.64523	
3516	35.150	-126.74686	30.02356	-382.48364	282.73505	31.86412	-474.93893	-73.85369	12.67276	160.33916	306.81131	25.50153	54.87374	98.05602	752.83813	-716.80359	-25.14804	604.83636	-480.66733	130.28870	609.67145	-492.24384	30.59351	552.05164	399.87708	177.62251	545.97644	392.00464	
3517	35.160	-126.79136	30.13799	-382.57721	282.62799	32.01941	-474.91422	-73.84931	12.74759	160.15977	306.70819	25.65654	54.94754	97.95247	753.45801	-717.69336	-26.95608	605.13593	-480.66525	128.73726	609.66705	-491.70135	28.66833	552.96497	399.93689	175.95451	546.82874	392.25378	
3518	35.170	-126.93781	29.87380	-382.61929	282.57266	31.90737	-474.98923	-73.85021	12.71609	160.13646	306.66800	25.84385	54.89949	98.14603	753.84088	-718.63544	-28.03500	605.05560	-480.61963	127.56251	609.77057	-491.76974	27.34934	553.75201	399.74292	174.06816	547.67407	392.17590	
3519	35.180	-126.97115	29.59657	-382.73087	282.42374	32.34383	-474.75720	-73.96640	12.56865	160.11127	306.55054	25.94685	54.70103	97.39118	754.26941	-719.78339	-29.01654	605.09119	-480.91275	126.55531	609.70288	-491.61780	25.34370	554.54639	399.79132	172.32394	548.45410	392.08578	
3520	35.190	-126.99785	29.42259	-382.72269	282.45740	32.29769	-474.69495	-74.01419	12.40736	160.00258	306.44489	25.92856	54.56046	96.95273	754.85919	-720.31116	-30.34077	605.02216	-481.48578	125.30723	609.63458	-492.07947	24.27199	555.24561	399.52313	171.18311	549.16431	391.95291	
3521	35.200	-127.09433	29.30714	-382.74023	282.32483	32.21516	-474.94577	-74.04684	12.39229	159.88181	306.35788	25.95341	54.50247	96.48535	755.09314	-720.62512	-31.26243	604.70392	-481.79568	124.17795	609.51001	-492.52039	23.31843	555.72882	399.16873	170.11476	550.00671	391.68353	
3522	35.210	-127.26842	29.17250	-382.77725	282.16333	32.16267	-475.01505	-74.01340	12.55620	159.82649	306.40222	25.98783	54.52442	95.76328	755.34747	-721.33917	-32.11871	604.49756	-481.73355	123.10684	609.64282	-492.95029	21.89546	556.56299	398.81042	169.20837	550.68298	391.24487	
3523	35.220	-127.49713	29.01880	-382.74969	281.92001	32.09094	-475.21002	-74.01573	12.67089	159.71751	306.39285	25.99675	54.36957	95.29741	755.30164	-721.70923	-33.44086	604.59460	-482.68793	122.18800	609.50476	-493.51215	21.05952	557.12482	398.25528	168.24226	551.38727	390.86401	
3524	35.230	-127.69821	28.83631	-382.75497	281.83676	32.12488	-475.24899	-74.00885	12.68309	159.69199	306.33401	25.81151	54.04267	95.08337	755.14697	-721.82471	-34.19099	604.26862	-483.09512	121.37778	609.50598	-494.05688	20.40598	557.44598	397.73230	168.34631	551.97412	391.04617	
3525	35.240	-127.81953	28.49991	-382.88168	281.93292	31.88064	-475.39297	-74.03584	12.62298	159.54077	306.33267	25.74128	53.82099	94.87453	754.89001	-722.05756	-35.29425	603.92413	-483.67627	120.11061	609.18585	-494.91901	19.91732	557.77338	397.16229	167.20966	552.25494	389.34680	
3526	35.250	-127.78880	28.24339	-383.03015	282.01263	31.94359	-475.41553	-74.00372	12.78956	159.33891	306.30743	25.70778	53.70772	94.94337	754.78857	-722.17285	-36.14682	603.56055	-484.69519	119.20446	609.03503	-495.74701	19.31867	558.48694	396.34296	166.80537	552.85352	388.68634	
3527	35.260	-128.15475	28.01927	-383.23062	281.82047	31.77781	-475.58102	-73.99274	12.97832	159.28313	306.39365	25.67034	53.64470	95.32402	754.58118	-722.20862	-37.62845	604.09631	-485.96841	118.09405	609.01349	-496.52747	19.23515	559.01611	395.54239	166.33931	553.47760	387.81000	
3528	35.270	-128.07968	27.86612	-383.26877	281.81012	31.67259	-475.74771	-74.04270	13.09904	159.25833	306.45401	25.71949	53.35799	95.65242	754.38568	-722.26917	-37.53722	603.62085	-486.15942	118.20313	608.73425	-497.40271	19.07568	559.50995	394.98358	166.13982	554.14471	387.09619	
3529	35.280	-127.92646	27.73640	-383.09692	281.69638	31.37912	-476.01166	-74.00761	13.16729	159.23666	306.37723	25.73981	53.20229	96.03141	754.01990	-722.17767	-37.68189	603.35406	-487.00439	117.77637	608.71735	-498.10828	18.71012	559.98627	393.88773	166.15511	554.72351	386.77740	
3530	35.290	-127.86221	27.48821	-383.19733	281.72256	31.24532	-476.08777	-74.08475	13.02001	159.19977	306.39508	25.74369	52.98324	96.14265	753.83557	-722.16522	-38.18572	603.21887	-487.99677	117.39510	608.66296	-498.84549	18.02201	560.38306	393.30225	165.23486	554.95862	385.48407	
3531	35.300	-127.94233	27.42766	-383.42258	281.79471	31.09483	-476.07733	-74.08058	13.01713	159.04420	306.37585	25.77775	52.89626	96.15981	753.71094	-722.27710	-38.36426	603.20160	-488.66446	117.19168	608.58527	-499.91220	17.63114	560.82251	392.42175	165.06580	555.50525	384.66916	
